<svg xmlns="http://www.w3.org/2000/svg" width="71.07" height="32.74" viewBox="0 0 71.07 32.74"><title>clew</title><path d="M38,12.35A17.7,17.7,0,0,1,57.78.49,15.8,15.8,0,0,1,70.49,18.86q-0.06.32-.13,0.64a17.7,17.7,0,0,1-20,13.25A15.8,15.8,0,0,1,37.82,21.61l-0.05-.44a18.67,18.67,0,0,1-.52-3.5l-1.11,1.22c-1.61,1.19-3.47,1.1-5.85-1.41-0.72-1.08-1.38-2.08-3.27-1a8.24,8.24,0,0,0-1.95,1.77l0.72,0.36a3.64,3.64,0,0,1,1.35,1.5,2.69,2.69,0,0,1,.16,2.05,2.94,2.94,0,0,1-2.56,1.57c-1.89,0-2.6-.67-2.68-2.06a2.54,2.54,0,0,1,.25-1.61A24.61,24.61,0,0,1,16.46,23c-2.92.85-6.82-.88-6.82-0.88h-10l0.06-2.08h10s4.49,2.07,6.26,1.49a22.28,22.28,0,0,0,5.56-2.84A5.33,5.33,0,0,1,23.33,18a8.9,8.9,0,0,1,2.95-2.79,3.51,3.51,0,0,1,5.29,1.29c1.55,1.61,2.74,1.78,3.52,1.15C37,16.17,37.46,13.1,38,12.13Zm-13.7,7.39c-0.45.78-1.17,2.58,0.44,2.47a1.45,1.45,0,0,0,1.11-.5C26.21,20.91,25,19.88,24.35,19.74Zm19.94,8.39L44.54,28a19.63,19.63,0,0,0,6.73-6.86l-2.52-.73a14.3,14.3,0,0,1-6.54,5.89,18,18,0,0,0,2,2Zm7.77-8.38,1-2.47-2.44-.78-1,2.47ZM54.59,18l-1,2.47,1.69,0.92,1-2.47ZM52.8,21.77a21,21,0,0,1-7.12,7.35l1.94,1.12a26.17,26.17,0,0,0,6.85-7.41Zm0.8-6a8.7,8.7,0,0,0,.26-2L51.33,13A5.84,5.84,0,0,1,51,14.92l2.52,0.73ZM54,12.12L54,9.68q-1.33-.38-2.69-0.62l0.16,2.41L54,12.21Zm-0.21-4.3A19,19,0,0,0,51.62,2a9.24,9.24,0,0,0-2.69.82A15.07,15.07,0,0,1,51,7.26Zm-0.37-6a21.73,21.73,0,0,1,2.06,6.55,7,7,0,0,1,2,.7,19.55,19.55,0,0,0-1.84-6.94V1.79a8.18,8.18,0,0,0-2.33.1Zm2.27,8.33-0.15,2.5,1.91,0.89,0.18-2.63Zm-0.29,4.27L55,16.37l1.77,0.87,0.45-1.86Zm2.76,3.81,2,1.56,0.62-2a10.64,10.64,0,0,0-2.13-1.59Zm-0.62,1.61a10.23,10.23,0,0,1-1.06,2.38L58.2,24l1.28-2.41Zm-1.87,3.88a24.16,24.16,0,0,1-6.51,7.19,10,10,0,0,0,2.86.51l0.08-.06a31.47,31.47,0,0,0,5.23-5.86,9.3,9.3,0,0,0-1.74-1.73ZM57.47,2a23,23,0,0,1,1.72,7.85,24,24,0,0,1,2.46,1.37c0-3.47-.76-5.49-1.72-8.58a8.2,8.2,0,0,0-2.52-.73Zm1.69,9.8A10.62,10.62,0,0,1,59,14.44L61.2,16a11.23,11.23,0,0,0,.4-2.66l-2.35-1.56Zm3,7.25-0.78,2.08a19.72,19.72,0,0,1,3.45,5.39,6.64,6.64,0,0,0,1.34-1.6A24.13,24.13,0,0,0,62.24,19ZM60.67,22.8a11.88,11.88,0,0,1-1.37,2.46,11.89,11.89,0,0,1,1.82,4.19l2.5-1.66-0.22-.33A16.39,16.39,0,0,0,60.67,22.8Zm-2.4,4a22.4,22.4,0,0,1-4,4.67,14.25,14.25,0,0,0,5.16-1.26,11,11,0,0,0-1.26-3.36ZM62.12,3.61a26.11,26.11,0,0,1,1.08,8.88,23.5,23.5,0,0,1,5.92,6A14,14,0,0,0,62.18,3.69ZM63,14.54a12.1,12.1,0,0,1-.48,2.72,23,23,0,0,1,4.7,6l1.26-2.63-0.17-.25a33.33,33.33,0,0,0-5.14-6ZM41.22,25.12a13.8,13.8,0,0,0,5.62-4.92H45.4a14,14,0,0,0-5.86,1.48A15.83,15.83,0,0,0,41.22,25.12Zm6.57-6.39L49,16.24a19.31,19.31,0,0,0-10,1.13L39.3,20A15,15,0,0,1,48,18.62Zm1.46-4a8.31,8.31,0,0,0,.31-1.88,23,23,0,0,0-10,.63l-0.17.11L39.29,14,39,15.71A21,21,0,0,1,49.25,14.77Zm0.43-3.52-0.1-2-0.05-.44a26,26,0,0,0-8.41.53L40,11.75a25,25,0,0,1,9.79-.61Zm-0.6-4.16a12,12,0,0,0-1.9-3.42A15.37,15.37,0,0,0,42.5,7.48,31.5,31.5,0,0,1,49.08,7.09Z" transform="translate(0.31 -0.24)" style="fill:#015794"/></svg>