<svg xmlns="http://www.w3.org/2000/svg" width="634.52" height="566.33">
  <g fill="#e74f3a">
    <path d="M314 0c6 3.63 11.97 7.31 18 10.88 3.8 2.24 7.82 4.14 11.54 6.51 4.32 2.76 5.84 7.35 3.8 12.05a86.4 86.4 0 0 1-6.72 12.61c-.68 1.06-3.6 1.82-4.75 1.24-6.9-3.47-13.6-7.34-20.32-11.13-6.7-3.8-13.37-7.66-20.28-11.62 3.5-7.64 7-15.14 13.73-20.54zm108.4 129.76c10.69 13.99 19.48 15.74 32.3 6l23.2 27.2-.8 1.22H142.89c2.76-4 4.93-7.64 7.6-10.86a176.18 176.18 0 0 1 12.39-13.5c1.01-1 3.71-1.32 5.1-.7 7.16 3.12 12.74 1.17 17.72-4.37 3.31-3.69 7.2-6.87 10.37-10.67 2.75-3.3 6.02-3.08 9.46-2.45 5.34.99 10.58 2.77 15.95 3.2 11.25.92 17.33-11.16 13.74-17.86-2.02-3.77-3.8-7.68-6.24-12.65l16.04-6.64c.73 5.14 1.17 9.54 2 13.87 2.21 11.55 4.6 23.06 6.9 34.6.94 4.69 4.75 6.7 9.93 4.77a1268.3 1268.3 0 0 0 38.37-14.69 14.13 14.13 0 0 0 6.2-5.81c6.63-11.4 12.84-23.05 19.33-34.54 4-7.06 9-8.55 16.74-5.74 2.91 1.05 4.31 2.26 4.86 5.72 1.9 12.04 14.25 18.88 24.02 13.97 1.27-.64 3.55-.1 5.02.6 5.53 2.67 10.9 5.66 16.37 8.48 6.03 3.1 12.19 5.97 18.05 9.36 1.17.68 2.22 3.65 1.7 4.87-6.35 14.71-24.2 24.34-39.17 17.54-8.8-4-9.13-15.36-4.22-20a9.8 9.8 0 0 1 11.48-1.97c1.56.7 3.72 3.8 2.94 5.9a5.03 5.03 0 0 1-6.14 2.78 8.87 8.87 0 0 1-.87-.41c-3.26-1.81-6.43-2.48-8.4 1.61-1.38 2.9 1.65 6.53 6.06 7.57 7.5 1.79 13.83-.51 17.34-6.28a13.78 13.78 0 0 0-1-15.4c-4.3-5.5-12.7-8.3-18.74-6.24-9.77 3.34-15.73 11.21-15.69 20.74.05 9.85 6.68 17.93 16.31 21.58 14.73 5.58 35.1-2.35 43.97-15.25 1.2-1.75 2.49-3.44 4.02-5.55zm-78.17-12.26c-4.52 1-9.16 1.62-13.54 3.06-15.88 5.2-27.11 15.87-35 30.4-1.69 3.1-1.21 5.92 1.66 7.1 1.55.63 4.21-1.02 6.16-2.03.9-.46 1.3-1.87 1.9-2.86 9.02-14.79 21.13-24.8 39.32-25.3 3.56-.1 6.9-1.33 6.8-5-.1-3.8-3.38-5.4-7.3-5.37zm-112.94 26.92c.04-6.84-4.6-11.53-11.46-11.6-6.84-.07-11.9 4.7-11.97 11.27a11.95 11.95 0 0 0 11.88 12.1 11.77 11.77 0 0 0 11.55-11.77zm246.98 256a211.21 211.21 0 0 1-52.9 52.2c2.6-6.44 4.8-11.8 6.9-17.2 1.94-4.97.5-9.38-4.58-10.97-13.1-4.08-25.9-2.11-33.61 12.15-5.58 10.32-10.26 21.11-15.42 31.66a32.3 32.3 0 0 1-3.07 4.25c-10.75-19.68-22.94-27.45-36.75-23.94-17.42 4.42-24.58 15.9-24.14 39.91l-23.17-1.65c-.4-3.38-.4-6.4-1.15-9.23-2.06-7.7-7.39-12.96-14.18-16.51-6.42-3.36-13.24-5.95-19.83-9a7.13 7.13 0 0 1-3.28-2.63c-3.52-6.63-9.31-9.96-16.19-12.12a16.27 16.27 0 0 1-6.06-3.66c-5.04-4.78-9.47-10.26-14.8-14.67-17.7-14.69-39.17-4.17-45.5 15.21l-28.81-32.64.88-1.16zM299.8 454.75c15.64 1.68 29.3-10.97 28.38-25.93-.94-15.26-16.56-25.33-30.27-18.68-6.54 3.18-11.3 12.05-9.11 18.18 3.13 8.77 7.44 11.4 17.3 9.97a9.05 9.05 0 0 0 6.45-4.78c.37-.69-.02-3.57-1.38-4.45a5.95 5.95 0 0 0-5.82-.33c-2.73 1.23-4.97 1.7-6.2-1.29-1.3-3.16-.88-6.64 2.55-8.2 4.05-1.83 8.39-2.02 12.2 1 3.88 3.05 6.06 9 4.76 12.7-3.95 11.24-16.93 16.45-28.86 11.47-14.78-6.18-23.36-17.2-26-33.06-.31-1.86-2.28-5.07-4.55-4.96-2.24.11-3.91 3.52-3.92 5.3a41.1 41.1 0 0 0 2.04 11.54c4.77 16.23 22.53 32.87 42.43 31.52zm83.24-23.83c1.5-1.66-1.27-6.93-1.9-8.58-1.71-4.56-2.6-6.9-4.17-10.93-2.2-5.6-5.42-6.86-10.95-4.47-3.89 1.67-7.72 3.52-11.72 4.9-5.69 1.96-7.1 4.48-4.99 10.06 1.75 4.6 3.49 9.2 5.43 13.72 2.14 5 4.38 5.77 9.4 3.77 5.15-1.87 8.76-3.14 11.87-4.51 2.44-1.08 5.37-2.12 7.03-3.96zm-6.64-3.04c.92-1.01-.77-4.24-1.16-5.25-1.05-2.78-1.59-4.22-2.56-6.68-1.34-3.43-3.3-4.2-6.7-2.74-2.38 1.02-4.73 2.15-7.17 3-3.48 1.2-4.35 2.74-3.05 6.16 1.06 2.81 2.13 5.63 3.32 8.4 1.3 3.05 2.68 3.52 5.75 2.3 3.16-1.15 5.37-1.92 7.27-2.76 1.49-.66 3.29-1.3 4.3-2.43z"/>
    <path d="M423.7 433.2l-20.91 44.6c6.63 0 11.92.3 17.16-.07 9.78-.69 19.52-1.9 29.3-2.62 4.69-.35 4.94.7 3.27 5.17-3.1 8.27-8.96 11.38-17.58 11.84-12.72.68-25.4 2.28-38.08 3.69-1.37.15-2.81 1.44-3.81 2.56a14.66 14.66 0 0 0-2.02 3.99c-1.11 2.57-3.32 5.4-2.88 7.7.38 1.95 3.8 3.37 5.94 4.92 13.77 9.94 12.27 29.91-3.18 36.9a20.26 20.26 0 0 1-22.65-3.64c-6.51-6.12-8.88-14.95-5.64-22.6Q367.55 514 373 502.58c1.95-4.09.37-5.16-3.45-4.88-8.29.62-16.56 1.3-24.85 1.87-10.4.72-18.92-9.06-20.23-15.37-2.34-11.28 3.13-22.53 13.09-25.44 13.03-3.8 26.99 2.27 28.14 17.87.33 4.49 2.2 5.97 6.33 5.32a79.11 79.11 0 0 0 10.24-1.9c1.27-.38 2.39-2.13 3.05-3.51 5.42-11.31 10.67-22.7 16.06-34.03 4.52-9.5 13.72-13.48 22.31-9.32zm-89.06 45.28c-.02 6.46 4.1 10.79 10.29 10.83a10.29 10.29 0 0 0 10.55-10.65c.03-6.49-4.04-10.7-10.35-10.7-6.56 0-10.48 3.92-10.5 10.52zm58.26 53.88c-.16-6.21-4.82-10.86-10.74-10.71-6.05.15-11.27 5.6-10.93 11.38.3 5.24 5.76 10.16 11.14 10.05 6.27-.13 10.68-4.62 10.53-10.72zm-4.38-37.2a7.1 7.1 0 0 0 7.52-6.9 7.42 7.42 0 0 0-7.22-7.31c-4.19-.04-7 2.9-7 7.3 0 4.34 2.42 6.83 6.7 6.91zM310 389.71q-120.45 0-240.9-.1c-2.29 0-6.61 2.13-6.52-2.68.08-4.2 4-3.56 6.93-3.56h481.8c1.16 0 2.63-.4 3.42.15 1.3.93 2.18 2.48 3.23 3.77-1.19.8-2.28 1.94-3.6 2.32-1.38.4-2.97.1-4.47.1H310zm.01-208.88H72.57a30.32 30.32 0 0 1-5.98-.11c-1.49-.3-2.8-1.46-4.2-2.23a30.83 30.83 0 0 1 4.28-3.95c.83-.54 2.27-.12 3.44-.12H550c1.5 0 3.32-.46 4.42.22 1.46.9 2.35 2.71 3.48 4.13a18.92 18.92 0 0 1-3.95 1.97 19.48 19.48 0 0 1-4.48.09zm-62.35 317.89c-1.05 5.96-1.97 11.27-2.95 16.57a11.04 11.04 0 0 1-1 2.72c-4.94 10.22-4.94 10.21-15.33 5.53l-11.57-5.22c3.41-7.9 6.8-14.52 9.09-21.5 1.35-4.11.98-8.8 1.37-13.22a1.5 1.5 0 0 0-.04-.5c-1.12-4.39-13.82-10.16-18.1-8.46-8.44 3.36-14.56 9.55-20.35 16.19-4.2 4.8-4.9 4.84-9.34.3-2.77-2.84-5.41-5.78-8.22-8.58-2.55-2.55-2.64-4.97-.55-7.96 4.39-6.27 10.6-9.8 17.53-12.42 1.05-.4 2.1-.78 4.1-1.51a46.97 46.97 0 0 0-4.3-3.75c-8.88-5.87-11.5-17.77-5.7-26.16 7.22-10.44 18.55-12.78 27.74-4.97 6.02 5.12 10.97 11.5 16.75 16.93a15.59 15.59 0 0 0 7.9 4.08c4.94.7 8.33 2.75 10.4 7.23 1.56 3.4 3.87 5.26 7.77 6.7a128.68 128.68 0 0 1 23.44 11.55c5.73 3.58 7.32 12.04 5.07 18.93-2.37 7.28-9.54 13.48-16.22 13.6a27.07 27.07 0 0 1-9.21-1.18c-2.87-1-5.35-3.1-8.28-4.9zm-48.06-71.14c-6.77.07-11.44 3.52-13.58 9.16-1.92 5.06-1.4 10.8 2.72 13.11 7.42 4.14 15.4 7.27 23.25 10.58.99.42 2.6-.64 3.92-1.02-.66-1.34-1-3.06-2.06-3.94-3.02-2.55-6.5-4.59-9.45-7.21-1.06-.94-1.14-2.99-1.67-4.53 1.66-.01 3.66-.62 4.92.08 3.43 1.92 6.45 4.58 9.86 6.54 1.15.66 3 .09 4.53.08-.03-1.25.46-3-.18-3.67a476.77 476.77 0 0 0-18.2-18.11c-1.14-1.07-3.43-.92-4.06-1.07zm56.82 57.23c-4.15-2.83-8-5.7-12.14-8.1-1.27-.74-3.3-.19-4.97-.22.33 1.52.2 3.45 1.09 4.5A126.13 126.13 0 0 0 252.53 494a23.87 23.87 0 0 0 9.42 4.81c4.96 1.33 10.75-2.71 13.14-8.34 2.34-5.48 1.45-11.78-3.03-14.15-7.26-3.85-14.91-6.98-22.52-10.13-1.05-.44-2.77.74-4.19 1.18.6 1.23.89 2.85 1.85 3.63 3.07 2.5 6.37 4.73 9.63 7 3.13 2.2 3.25 4.31-.4 6.8zm-16.1-24.01c-.02-4.61-3.37-9.09-7.02-8.57-6.31.89-12.47 6.11-12.5 13.75 0 4.74 3.27 8.32 7.44 8.3 6.05-.04 12.12-6.8 12.09-13.48zm-33.3 8.28l-1.66-2.16c-10.21-1.36-19.42.36-26.97 8.36-4.12 4.37.59 5.9 2.27 8.38 1.85 2.73 3.75 2.2 6.13.2 5.39-4.55 11.02-8.81 16.62-13.1a18.15 18.15 0 0 1 3.62-1.68zm28.26 50.39c7.24-7.46 6.86-25.64-.6-31.05-1.79 5.94-3.2 12.03-5.43 17.8-3.92 10.16-4.13 10.08 6.04 13.25z"/>
    <path d="M420.4 467.98c10.38-7.86 21.07-15.38 31.1-23.67 13.87-11.48 25.46-25.16 35.74-39.94 3.49-5.01 3.55-4.97 10.14-3.95-1.2 1.97-2.3 3.65-3.3 5.39-1.02 1.76-1.97 3.57-3.54 6.45 4.39 0 7.64-.07 10.9.02 12.56.34 21.64 5.94 26.54 17.75 2.43 5.86-.53 14.86-5.77 19.23-4.06 3.4-13.94 3.35-17.24.2s-5.48-6.73-4.57-11.41a10.54 10.54 0 0 1 7.65-8.38c1.5-.45 3.52.83 5.31 1.32a31.8 31.8 0 0 1-2.1 3.83c-1.43 1.95-3.64 3.57-4.33 5.7-.36 1.13 1.74 4.33 2.87 4.4 3.1.2 7.03.23 9.27-1.48 5.63-4.3 4-15.04-2.45-19.92-11.26-8.53-30.2-6.53-39.42 4.1a213.68 213.68 0 0 1-9.74 10.7c-2.3 2.31-2.16 4.13.05 6.32q17.69 17.54 35.29 35.16a6.29 6.29 0 0 0 2.6 1.74 5.57 5.57 0 0 0 3.94-.57c6.65-3 16.14 2.07 18.95 9.5 2.55 6.74-2.34 15.89-9.42 18.46-10.8 3.93-18.41-3.03-20.29-11.84-.7-3.33 1.66-7.15 1.67-8.5.03-3.15-2.6-5.52-5.16-8.03-10.49-10.32-20.99-20.64-31.25-31.18-2.8-2.88-4.7-3.23-7.85-.53-6.27 5.38-12.52 10.96-19.51 15.24-4.56 2.8-10.43 3.47-15.7 5.09zm101.93 27.35c.06-5.19-3.32-8.67-8.45-8.7-4.85-.01-9.13 3.93-9.1 8.4.04 4.32 4.52 8.92 8.82 9.05a8.76 8.76 0 0 0 8.73-8.75zM225.64 60c.82 2.45-1.47 3.6-2.06 4.75-3 5.88-6.33 11.63-8.9 17.7a10.16 10.16 0 0 0 .26 7.4c2.84 6.12 6.46 11.89 9.48 17.93.74 1.49 1.14 4.46.35 5.1-1.25 1.03-3.68 1.07-5.53.83-7.39-.97-14.73-2.41-22.14-3.18-1.53-.16-3.54 1.58-4.9 2.9-4.27 4.14-8.22 8.62-12.55 12.7-1.66 1.58-3.8 4.35-6.03 3.6-2.2-.75-2.18-4.23-2.61-6.47-1.2-6.17-1.65-12.52-3.2-18.59-.59-2.29-3.03-4.63-5.23-5.87-5.58-3.14-11.58-5.54-17.27-8.52-1.57-.82-3.97-2.1-3.92-3.96.04-1.72 2.32-2.69 3.78-3.49 4.75-2.6 9.44-5.54 14.52-7.24 6.7-2.24 8.4-7.2 9.18-13.18.65-4.93 1.16-9.9 2.04-14.79.32-1.77 1.24-4.45 2.42-4.78 1.4-.4 3.71.95 5.05 2.17 3.78 3.44 7.87 6.78 10.71 10.94 5.23 7.64 11.9 5.82 18.87 4.16A106.66 106.66 0 0 1 221 57.54c1.4-.15 4.03.67 4.64 2.47zm-48.48-6.5a1.96 1.96 0 0 0-1.6.99c-.89 1.34-.56 3.18-.67 4.78-1.07 15.48-1.06 15.48-14.95 22.6a25.5 25.5 0 0 0-3.93 2.07c-1.04.79-3.06 1.58-2.9 3.3.23 2.43 11.4 5.37 16.45 8.39a9.7 9.7 0 0 1 3.87 5.65c.98 4.18 1.02 8.57 1.7 12.83.25 1.52.37 3.88 1.88 4.37 1.6.52 3.17-1.43 4.35-2.57 3.22-3.1 6.08-6.56 9.36-9.57 1.34-1.22 3.48-2.41 5.14-2.27 4.27.35 8.46 1.6 12.72 2.2 2.3.32 6 2.63 7.88.05 1.7-2.32-5.96-10.56-7.85-15.63a14.5 14.5 0 0 1-.13-9.22c1.8-5.07 9.45-13.04 7.8-15.8-1.78-2.97-6.68.07-9.3.63-13.74 2.94-13.71 2.99-23.52-7.03-1.99-2.04-3.46-5.51-6.3-5.78zm100.1 41.83l-17.75-9.91c.66-1.38 1.59-3.57 2.73-5.63 8.52-15.48 17.19-30.87 25.54-46.43 1.9-3.55 3.86-4.16 7.05-2.15.28.18.6.3.88.48 3.92 2.34 10.07 3.98 11.1 7.24 1.03 3.2-2.93 8.19-5.1 12.17-8.1 14.87-16.37 29.65-24.45 44.23zm57.42-41.83l-30.99 56.07c-5.67-2.8-10.98-5.23-16.05-8.1-.73-.42-.91-3.24-.3-4.37 9.12-16.82 18.5-33.5 27.56-50.35 1.25-2.34 2.43-3.17 4.5-2.06 5.05 2.74 9.98 5.73 15.28 8.81zM123.16 400.51c4.09-.98 6.77-1.21 9.1 2.1 10.43 14.8 21.92 28.65 35.54 40.73 2.42 2.14 3 6.35 4.42 9.6l-1.62 1c-2.3-1.97-4.67-3.88-6.9-5.94-2.14-1.96-4-1.84-6.02.2-11.82 11.88-23.8 23.62-35.4 35.7-1.43 1.5-1.8 4.9-1.34 7.13 1.34 6.47-1.36 14.65-6.93 17.14-6.82 3.06-12.28 2.9-18.14-3.04-4.88-4.96-5.15-12.94-1.1-18.83 3.77-5.46 10.6-7.3 17.2-5.11a6.02 6.02 0 0 0 5.09-1.15 3582.17 3582.17 0 0 0 36.07-35.82c2.24-2.23 1.49-4.12-.47-6.42a1315.3 1315.3 0 0 1-23.17-27.96c-2.25-2.77-4.04-5.91-6.33-9.33zm-16.34 86.13c-5.13-.06-8.7 3.18-8.83 7.99-.14 5.1 3.48 9.25 8.24 9.46 4.57.2 9.37-4.47 9.38-9.14.02-4.28-4.2-8.26-8.8-8.31zM266.43 38.03c-2.26 5.72-6.59 2.58-8.79 1.43-10.26-5.37-18.98-1.6-27.82 3.3a22.4 22.4 0 0 1-6.55 2.18c-5.64 1.09-8.2-.4-10.6-5.72q-2.33-5.2-4.7-10.37c-2.8-6.13-1.06-11.27 5.18-14.23q12.94-6.15 26.08-11.88c6.1-2.68 11.59-.46 14.28 5.64 4.39 9.93 8.68 19.9 12.92 29.65zM256.8 31c-3.2-7.2-6.25-14.4-9.69-21.42-.44-.91-3.18-1.55-4.4-1.1a206.84 206.84 0 0 0-18.26 7.54c-14.48 6.97-13.73 2.44-7.11 19.02 1.61 4.06 3.78 5 8.1 3 9.4-4.33 18.58-10.54 29.84-6.19.1.04.28-.14 1.52-.85zm-96.6 89.52c1.4 5.26-.22 8.78-3.71 12.6-8 8.78-15.43 18.1-22.68 27.51-2.73 3.55-5.53 4.77-10.93 3.36 6.7-8.74 12.98-16.93 19.28-25.1 4.9-6.37 5.7-5.35-.39-11.37q-23.1-22.85-45.94-45.98c-1.81-1.83-5.34-3.7-2.66-6.77.58-.67 5.15.98 6.84 2.64a4004.51 4004.51 0 0 1 44.8 44.76c6.35 6.43 6.23 6.53 12.7.47.79-.75 1.72-1.36 2.69-2.12zm301.83 1.71c8.14 5.37 8.14 5.37 15.55-2.06l42.6-42.69c.7-.7 1.34-1.8 2.17-1.99a43.04 43.04 0 0 1 5.85-.65c-.55 1.57-.66 3.57-1.72 4.64q-21.99 22.27-44.26 44.26c-2.83 2.78-6.35 4.84-9.43 7.15l24.98 33c-5.3 1.5-7.94.51-10.88-3.36a425.37 425.37 0 0 0-24.77-29.65c-3.25-3.56-2.72-5.72-.1-8.65zM197.66 537.67c-1.48 0-3.21.5-4.4-.08-7.27-3.6-11.25.9-15.25 5.76a26.96 26.96 0 0 1-3.48 2.9c-.82-4.15-.77-8.22-2.51-11.28-1.5-2.64-4.97-4.24-7.72-6.08-1.47-.98-3.24-1.5-6.48-2.94 11.01-3.38 17.5-9.07 14.07-21.13l1.43.29c3.38 3.06 6.3 7.38 10.26 8.83 3.66 1.34 8.44-.4 14.76-.95-6.65 8.92-6.71 16.63.71 23.88zM466.65 90.15c-1.02 2.9-1.4 4.74-2.26 6.3-5.66 10.22-11.42 20.38-17.15 30.56-1.74 3.1-4.2 5.84-7.88 4.5-2.4-.87-4.6-3.26-5.98-5.53-.7-1.15.2-3.76 1.06-5.32 6.13-11.1 12.2-22.25 18.93-32.98 1.2-1.9 5.5-2.9 8.1-2.53 2.01.28 3.62 3.38 5.18 5zm-97.94.65c-7.07.19-10.63-5.15-8.13-9.74q9.14-16.81 18.57-33.46c2.69-4.73 5.89-5.71 9.83-3.55 4.03 2.2 4.85 5.87 2.24 10.64-5.56 10.17-11.03 20.39-16.89 30.38-1.53 2.6-4.33 4.46-5.62 5.73zm79.45-51.76c.43 12.86-8.5 19.53-19.38 19.66a19.3 19.3 0 0 1-19.87-20.12c.33-11.24 8.5-19.13 19.92-19.54 8.88-.32 20.3 7.74 19.33 20zm-33.38-.16c-.02 7.73 6.63 14.4 14.21 14.24 6.93-.15 13.82-6.98 13.96-13.85.15-7.54-6.66-14.4-14.27-14.36-7.3.03-13.88 6.66-13.9 13.97zm-119.26 79.77l-32.7 12.37-6.5-33.08c6.8-1.08 11.48.85 14 6.72 2.1 4.88 5.1 6.07 10.01 5.79 7.3-.42 9.73 1.1 15.19 8.2z"/>
    <path d="M120.02 430.04a15.06 15.06 0 0 1-8.75 13.57c-5.43 2.39-11.26 0-14.76-4.5a14.09 14.09 0 0 1-.99-16.06c2.83-4.69 8.2-7.59 13.68-6.38a14.14 14.14 0 0 1 10.82 13.37zm411.99-305.59c-1.65 8.77-3.1 18.77-5.57 28.51-.99 3.94-4.59 2.19-6.83.35-5.37-4.42-10.58-9.06-15.86-13.59-1.9-1.62-3.92-3.1-5.71-4.82-2.58-2.46-2.42-4.77 1.09-6.07a856.52 856.52 0 0 1 27.37-9.8c4.6-1.52 5.67-.46 5.51 5.42zm-10.34 22.88c.54-.34 3.68-15.03 4.83-22.16-7.13 2.53-13.97 5.18-21.16 7.74 5.73 4.92 11.63 10.4 16.33 14.42zM95.35 147c-3.15-1.13-4.85-11.54-6.95-17.23-.77-2.07-.6-3.99 2.34-5 5.68-1.95 15.01-7.86 17.33-6.92 2.82 1.14 5.27 13.03 7.46 19.35.27.78-1.23 2.86-2.33 3.3-5.64 2.27-14.61 7.64-17.85 6.5zm242.53 397.99c-5.04-2.42-9.97-4.63-14.71-7.21-.65-.35-.8-2.7-.36-3.77 1.56-3.78 3.73-7.32 5.19-11.13 1.07-2.81 2.58-3.15 4.95-2.03 3.72 1.75 7.52 3.36 11.08 5.38 1.12.63 2.52 2.76 2.2 3.57-1.84 4.72-4.13 9.26-6.38 13.8-.29.6-1.22.88-1.97 1.38zm48.3-520.95c.16 3.07-.9 4.44-4.17 4.95-3.98.62-7.77 2.5-11.75 3.12-1.53.23-4.4-1.12-4.86-2.4a75.93 75.93 0 0 1-3.75-14.77c-.19-1.3 1.99-3.81 3.55-4.32a59.9 59.9 0 0 1 13.06-2.69c1.62-.14 4.48 1.33 4.94 2.68 1.46 4.32 2.06 8.93 2.98 13.43zm-12.26 1.09c3.02-.44 6.15-.8 5.18-4.95-.52-2.24-1.06-5.71-2.85-6.05-2.52-.49-8.42.06-8.12 4.24.2 2.9.8 7.48 5.79 6.75zm100.07 31.92c3.93 5.68 8.83 4.86 14.91 3.7-3.53 6.05-1.48 10.52 1.89 15.33-6.86-2.82-10.38 1.14-14.17 6.66-.71-7.01-4.24-10.55-11.5-11.96 7.25-2.65 8.88-7.51 8.87-13.73zm-30.98 29.48a25.2 25.2 0 0 1-1.08 2.68c-4.12 7.33-8.14 14.72-12.51 21.9-.92 1.5-3.16 2.2-4.79 3.26-.04-2.19-.86-4.77.01-6.49a357.27 357.27 0 0 1 12.48-22.4c.7-1.17 2.9-1.57 4.5-1.9.26-.06.98 2.05 1.4 2.95zM416.72 71.6c-.37.53-.78 1.02-1.09 1.58-4.32 7.76-8.5 15.6-13.06 23.21-.84 1.4-3.16 1.9-4.8 2.83-.07-1.87-.83-4.1-.09-5.55 4.01-7.9 8.3-15.68 12.76-23.35.6-1.04 2.59-1.63 3.99-1.74 1.25-.1 2.57.76 3.86 1.2zm-7.09 32.61a28.18 28.18 0 0 1 1.58-4.53c3.9-6.92 7.77-13.88 12.01-20.59.97-1.52 3.4-2.13 5.15-3.16-.07 2.02.52 4.4-.32 6a535.49 535.49 0 0 1-13.2 23.3c-.61 1.03-2.27 1.46-3.44 2.17zm-24.85-11.57c-.45-1.76-1.82-4-1.2-5.2A515.74 515.74 0 0 1 397.7 62.5c.48-.8 2.54-.66 3.86-.95.21 1.5 1.07 3.33.52 4.46-2.38 4.88-5.18 9.55-7.81 14.3-1.69 3.05-3.32 6.12-5.02 9.14-.73 1.3-1.59 2.52-2.39 3.77zm-98.15 409.9c.95-4.16 2.97-5.84 6.76-5.72 6.98.2 13.96.2 20.93.21 6.37.02 6.37-.01 11.12 5.5zM224.9 84.05c1.88-2.61 3.21-6.54 5.74-7.6 8.4-3.51 17.23-5.99 26.96-9.22-2.15 5.9-4.51 8.65-9.66 9.87-7.58 1.8-14.82 5.06-22.2 7.7zM337.38 68.1c3.37-5.46 8.33-5.71 18.7-1.25-2.6 5.48-10.12 6.06-18.7 1.25zM473.5 513.58a11.53 11.53 0 0 0-4.45-.17c-6.74 1.26-10.43-1.1-13.13-6.8a17.58 17.58 0 0 0-1.3-2.11c-1.09-1.32-2.69-4.3-5.43-4.3-2.33 0-3.12 3.69-3.8 5.81-2 6.14-4.46 11.43-12.16 11.44a9.08 9.08 0 0 0-3.83 1c-1.4.7-3.41 1.54-3.7 2.69-.29 1.09.99 3.12 2.14 3.94 7.62 5.4 13.71 11.31 9.52 20.68.13 4.7 2.16 6.03 5.27 4.43a19.68 19.68 0 0 0 3.66-2.54c5.11-4.34 10.48-5.2 16.38-1.57a11.3 11.3 0 0 0 3.73 1.3c1.27.24 3.23.7 3.75.1.93-1.08 1.84-3.37 1.3-4.33-5.1-9.11-2.52-16.3 4.53-23.12 2.78-2.68 1.36-5.6-2.47-6.45zm-9.66 12.19a32.42 32.42 0 0 0-.97 8.85c.07 2.11.51 5.1-2.2 3.91-5.72-2.5-10.48-.95-16.44 2.96 1.49-8.23-1.15-13.42-7.76-17.44 7.5-1.6 11.7-6.33 14.75-12.94 3.06 7.3 8.31 9.71 16.18 8.68-1.66 2.7-3.13 4.21-3.56 5.98zm-165.76 40.56a5.99 5.99 0 0 1-1.5-.19l-33.17-8.55a6 6 0 0 1-2.95-9.84l23.82-26.31a6 6 0 0 1 10.24 2.47l9.36 34.87a6 6 0 0 1-5.8 7.55zm-33.17-14.55l33.17 8.55-9.35-34.87-23.82 26.32zM171.78 86.25c7.31-2.75 11.82-6.75 9.91-15.38 5.12 5.88 10.72 8.18 17.91 5.77-2.6 9-2.6 9-.16 18.31-6.45-1.12-12.34-.55-16.7 5.98-.33-7.59-3.15-12.75-10.96-14.68zm258.16-53.43c2.34 1.5 2.81 4.97 3.25 7.61.14.82-2.97 3.06-4.6 3.05-1.66 0-4.85-2.34-4.69-3.01.65-2.7 1.2-6.2 3.65-7.67a2.42 2.42 0 0 1 2.4.02z"/>
  </g>
  <path fill="#015794" d="M514 244.87c-.25-24.96-23.66-44.11-50.7-37.2a39 39 0 0 0-29.15 38.19c.07 24.64.01 49.29.03 73.94a28.06 28.06 0 0 0 .3 6.47c5.61 23.24 27.6 37.51 50.89 30.85 15.96-4.57 28.3-19.29 28.6-35.81.21-12.99.04-25.98.04-38.97h.02c0-12.49.1-24.98-.02-37.47zm-28.52 77.49a10.75 10.75 0 0 1-11.6 10.5 11.92 11.92 0 0 1-11.27-12.07c.32-12.8.1-25.61.1-38.42s-.04-25.61.02-38.42c.02-6.28 4.46-11.3 10.25-11.88 6.26-.6 11.43 3.52 12.6 10.05a8.63 8.63 0 0 1 .3 1.46c-.09 26.26.02 52.53-.4 78.78zm147.88 17.66c-9.39-21.65-19.07-43.18-28.37-64.86a8.92 8.92 0 0 1 .37-7.1c8-13.12 16.37-26.01 24.6-39 5.1-8.06 3.36-16.56-4.3-21.19-6.15-3.7-15.54-.34-19.84 6.87a3901.74 3901.74 0 0 1-23.1 38.11 27.6 27.6 0 0 1-3.2 3.65 11.09 11.09 0 0 1-1.46-5.8c-.04-10.33.08-20.66-.1-31a13.01 13.01 0 0 0-11.9-12.9c-10.08-1.1-16.25 4.95-16.28 15.85q-.15 59.97.08 119.95a21.18 21.18 0 0 0 2.7 9.84c2.95 5.26 10.13 7.65 15.49 5.96a14.17 14.17 0 0 0 9.93-13.4c.13-11.5.29-23-.03-34.48-.16-5.85 3.16-9.3 7.4-14 4.9 11.9 9.34 22.72 13.8 33.51 2.97 7.16 5.63 14.47 9.08 21.39a13.41 13.41 0 0 0 17.76 6.1c7.28-3.47 10.43-10.45 7.37-17.5zM284.42 217.65c-1.3-5.82-5.44-9.97-10.38-10.64-10.98-1.49-17.54 4.15-17.56 15.3q-.07 45.25-.02 90.5c0 3 .13 6.01-.06 9a11.7 11.7 0 0 1-15.38 10.26c-5.77-2-8.6-6.23-8.7-13.59-.11-10-.03-20-.04-30 0-22.33-.05-44.66.03-67 .02-4.92-1.01-9.22-5.17-12.3-4.62-3.4-10-3.34-14.72-1.44s-7.57 6.03-7.52 11.76c.14 17.67.05 35.33.05 53h.04c0 16.5-.33 33.01.2 49.5a37.7 37.7 0 0 0 4.15 15.44 39.34 39.34 0 0 0 52.1 17.54c15.49-7.54 23.29-20.3 23.4-37.38.22-31.5.08-63 .05-94.5a25.38 25.38 0 0 0-.47-5.45zM168.43 333.2c-7.32-.23-14.65-.08-21.98-.13-5.98-.03-6.39-.45-6.5-6.6-.03-1.5-.01-3-.01-4.5 0-32.15.08-64.29-.11-96.43-.03-4.2-.57-8.8-2.37-12.49-2.94-5.95-9.69-7.79-16.88-5.86-4.93 1.33-8.58 6.68-8.6 13.16-.07 20.65-.02 41.3-.02 61.95 0 20.98-.07 41.97.05 62.95.04 7.9 5.67 13.38 13.52 13.43q21.23.14 42.46.01c7.58-.04 12.77-5 12.9-12.05.13-8.24-4.29-13.18-12.46-13.44zM383 280.1a47.13 47.13 0 0 0 4.92-3c5.55-4.53 10.11-10.33 10.52-17.31a96.87 96.87 0 0 0-1.85-26.56c-2.88-12.78-16.57-25.48-31.05-26.17a502.2 502.2 0 0 0-30.46-.36c-10.03.13-14.33 4.66-14.42 14.87-.1 12.5-.04 24.98-.04 37.48 0 28.31-.04 56.63.07 84.94.04 9.3 5.42 14.65 14.35 14.7 8.99.05 17.99.16 26.98-.04 12.12-.27 21.92-5.56 29.67-14.71 8.51-10.06 9.22-22.08 9.16-34.6-.07-12.66-5.5-21.63-17.85-29.23zm-34.39-29.95h.03c0-4.65.02-9.3 0-13.94-.03-2.86 1.22-4.32 4.2-4.2 2.48.1 4.98-.1 7.46.07a10.86 10.86 0 0 1 9.9 10.37c.11 4.98.1 9.96.03 14.94-.09 6.21-3.17 9.76-9.29 10.9-.81.15-1.63.28-2.46.36-9.36.85-9.87.38-9.88-9.03l.01-9.47zm23.63 67.86c-1 4.75-.18 5.14-2.22 9.4-2.47 5.17-14.48 7.98-19.3 5.18-1.11-.65-1.96-2.7-1.99-4.13-.17-10.14-.07-20.29-.1-30.43 0-3.25 1.4-5.11 4.8-4.84a29.48 29.48 0 0 1 9.76 1.2c6.54 1.8 8.9 5.1 9.1 11.7.07 2.33.01 4.66.01 7 .31.06-.38 4.86-.06 4.92zM32 236.13c2.8-3.18 7.46-5.06 11.63-3.7 4.47 1.48 7 6.08 8.48 10.25a48.6 48.6 0 0 0 2.14 6.23 14.6 14.6 0 0 0 3.36 4.3c5.71 5 15.3 4.6 20.03-1.63 5.64-7.4 2.06-17.5-1.91-24.76a37.76 37.76 0 0 0-15.55-15.64 43.4 43.4 0 0 0-24.1-4.47 39.78 39.78 0 0 0-22.68 10.32c-3.04 2.82-5.22 6.4-7.61 9.78a35.88 35.88 0 0 0-4.55 10.36A61.6 61.6 0 0 0 0 246v73.18A61.6 61.6 0 0 0 1.24 328a35.88 35.88 0 0 0 4.54 10.36c2.4 3.4 4.57 6.96 7.62 9.78a39.78 39.78 0 0 0 22.67 10.32 43.4 43.4 0 0 0 24.1-4.47 37.76 37.76 0 0 0 15.55-15.64c3.98-7.27 7.55-17.35 1.92-24.76-4.74-6.23-14.32-6.63-20.04-1.63a14.6 14.6 0 0 0-3.35 4.3 48.6 48.6 0 0 0-2.14 6.23c-1.48 4.17-4.01 8.77-8.48 10.24-4.17 1.37-8.83-.51-11.64-3.69a12.36 12.36 0 0 1-2.84-5.49c-.55-2.51-.3-5.26-.3-7.82-.07-11.02-.02-22.04-.02-33.06v-.17c0-11.02-.05-22.04.01-33.06.02-2.56-.24-5.31.31-7.82a12.36 12.36 0 0 1 2.84-5.5z"/>
</svg>
