<svg xmlns="http://www.w3.org/2000/svg" width="10.725" height="17.195" viewBox="0 0 10.725 17.195"><title>girl</title><path d="M.624,5.951a.614.614,0,0,0,.312.811L1.058,5.6A.614.614,0,0,0,.624,5.951Z" transform="translate(0.008)" style="fill:none"/><path d="M6.284.8A.351.351,0,0,0,5.67.733L4.914,1.8a.378.378,0,0,0-.028.369.359.359,0,0,0,.284.217l1.342.151a1.105,1.105,0,0,1,.321-.454Z" transform="translate(0.008)" style="fill:none"/><path d="M9.677,5.6l-.019.019.123,1.153a.614.614,0,0,0-.1-1.172Z" transform="translate(0.008)" style="fill:none"/><path d="M7.532,3.454a.52.52,0,0,0-.038-1.039h0a.51.51,0,0,0-.5.52v.019A.52.52,0,0,0,7.532,3.454Z" transform="translate(0.008)" style="fill:none"/><path d="M9.044,5.864a.923.923,0,0,1-.1,0A.907.907,0,0,1,8.2,5.307L7.654,4.021a1.021,1.021,0,0,1-.709-.151L6.709,4.1a3.081,3.081,0,0,0,1.162.936l0,0a.294.294,0,0,1-.117.556.264.264,0,0,1-.113-.028,3.62,3.62,0,0,1-1.361-1.1,5.028,5.028,0,0,1-3.09,1.021A6.521,6.521,0,0,1,1.654,5.3l-.019.094-.2,1.9a3.024,3.024,0,0,0,1.153,2.722L4.167,11.2a1.956,1.956,0,0,0,2.381,0l1.569-1.191A3.024,3.024,0,0,0,9.27,7.3L9.119,5.864ZM5.094,7.782h.472a.288.288,0,0,1,0,.576H5.1l-.009-.009a.284.284,0,1,1,0-.567Zm-.931-.421a.6.6,0,0,0-.855.024L3.294,7.4a.265.265,0,0,1-.374-.013.293.293,0,0,1,0-.406q.025-.026.051-.051a1.134,1.134,0,0,1,1.6.051.293.293,0,0,1,0,.4l-.009.009,0,0a.265.265,0,0,1-.374,0ZM6.256,9.739l-.047.047a1.257,1.257,0,0,1-1.777-.047.293.293,0,0,1,0-.406l.013-.013a.265.265,0,0,1,.374.013l.024.024a.718.718,0,0,0,1.015-.024l.023-.023a.265.265,0,0,1,.373.023A.293.293,0,0,1,6.256,9.739ZM7.787,7.386,7.773,7.4A.265.265,0,0,1,7.4,7.386l-.024-.024a.6.6,0,0,0-.855.024L6.507,7.4a.265.265,0,0,1-.374-.013.293.293,0,0,1,0-.406,1.132,1.132,0,0,1,1.654,0A.293.293,0,0,1,7.787,7.386Z" transform="translate(0.008)" style="fill:none"/><path d="M10.036,5.118l.491-.709a.964.964,0,0,0,.095-.945.907.907,0,0,0-.737-.558.29.29,0,0,0-.062.576h.005a.359.359,0,0,1,.284.217.378.378,0,0,1-.028.378L9.327,5.136a.342.342,0,0,1-.6-.066L8.155,3.785a1.106,1.106,0,0,0,.321-.454l.4.047H8.9a.285.285,0,0,0,.038-.567l-.406-.047a1.068,1.068,0,0,0-1.039-.926,1.017,1.017,0,0,0-.161.009L6.795.572A.907.907,0,0,0,6.048.005a.888.888,0,0,0-.832.387L4.46,1.46a.964.964,0,0,0-.094.945.907.907,0,0,0,.747.567l1.342.142a1.116,1.116,0,0,0,.113.34,4.735,4.735,0,0,1-4.8,1.276A3.846,3.846,0,0,1,3.9,2.245a.283.283,0,0,0,.143-.374l0,0a.274.274,0,0,0-.356-.152h0A4.442,4.442,0,0,0,1.134,5.023,1.181,1.181,0,0,0,.879,7.348a3.591,3.591,0,0,0,1.389,3.128l.378.284A2.9,2.9,0,0,0,.879,13.452v.784a.283.283,0,1,0,.548,0v-.784a2.334,2.334,0,0,1,1.332-2.126,2.655,2.655,0,0,0,2.6,2.344,2.618,2.618,0,0,0,2.41-1.663.284.284,0,0,0-.138-.376l0,0a.274.274,0,0,0-.363.137l-.006.014a2.07,2.07,0,0,1-1.9,1.314,2.1,2.1,0,0,1-2.051-1.843l.529.406a2.5,2.5,0,0,0,3.024,0l.643-.482A2.306,2.306,0,0,1,9.28,13.443v3.185H8.212V14a.284.284,0,1,0-.558,0v2.627h-4.6V14A.284.284,0,1,0,2.5,14v2.627H1.417V15.3a.284.284,0,1,0-.558,0v1.616a.284.284,0,0,0,.284.284H9.554a.284.284,0,0,0,.274-.284V13.443A2.9,2.9,0,0,0,8.061,10.75l.378-.284A3.591,3.591,0,0,0,9.828,7.338a1.172,1.172,0,0,0,.879-1.143h.009A1.181,1.181,0,0,0,10.036,5.118ZM.936,6.762A.614.614,0,0,1,1.058,5.6ZM7.494,2.415h0a.52.52,0,1,1-.5.538V2.935A.51.51,0,0,1,7.494,2.415Zm-.983.123L5.169,2.386a.359.359,0,0,1-.284-.217A.378.378,0,0,1,4.914,1.8L5.67.733A.351.351,0,0,1,6.284.8l.548,1.285A1.105,1.105,0,0,0,6.511,2.538Zm1.607,7.475L6.549,11.2a1.956,1.956,0,0,1-2.381,0L2.589,10.013A3.024,3.024,0,0,1,1.436,7.291l.2-1.9L1.654,5.3a6.521,6.521,0,0,0,1.54.189,5.028,5.028,0,0,0,3.09-1.021,3.62,3.62,0,0,0,1.361,1.1.264.264,0,0,0,.113.028.294.294,0,0,0,.117-.556l0,0A3.081,3.081,0,0,1,6.709,4.1l.236-.227a1.021,1.021,0,0,0,.709.151L8.2,5.307a.907.907,0,0,0,.737.558.923.923,0,0,0,.1,0h.076L9.27,7.3A3.024,3.024,0,0,1,8.118,10.013Zm2.036-3.687a.614.614,0,0,1-.373.446L9.658,5.618,9.677,5.6A.614.614,0,0,1,10.154,6.325Z" transform="translate(0.008)" style="fill:#e74f3a"/><path d="M4.561,7.389l0,0,.009-.009a.293.293,0,0,0,0-.4,1.134,1.134,0,0,0-1.6-.051q-.026.025-.051.051a.293.293,0,0,0,0,.406.265.265,0,0,0,.374.013l.013-.013a.6.6,0,0,1,.855-.024l.024.024A.265.265,0,0,0,4.561,7.389Z" transform="translate(0.008)" style="fill:#e74f3a"/><path d="M6.955,6.62a1.134,1.134,0,0,0-.822.359.293.293,0,0,0,0,.406.265.265,0,0,0,.374.013l.013-.013a.6.6,0,0,1,.855-.024l.024.024a.265.265,0,0,0,.374.013l.013-.013a.293.293,0,0,0,0-.406A1.134,1.134,0,0,0,6.955,6.62Z" transform="translate(0.008)" style="fill:#e74f3a"/><path d="M5.882,9.309l-.023.023a.718.718,0,0,1-1.015.024L4.82,9.332a.265.265,0,0,0-.374-.013l-.013.013a.293.293,0,0,0,0,.406,1.257,1.257,0,0,0,1.777.047l.047-.047a.293.293,0,0,0,0-.406A.265.265,0,0,0,5.882,9.309Z" transform="translate(0.008)" style="fill:#e74f3a"/><path d="M5.094,8.349l.009.009h.463a.288.288,0,0,0,0-.576H5.094a.284.284,0,1,0,0,.567Z" transform="translate(0.008)" style="fill:#e74f3a"/></svg>