<svg width="35" height="35" xmlns="http://www.w3.org/2000/svg">
  <path d="M32.94 1.32A4.18 4.18 0 0 0 29.84 0H4.4C3.2 0 2.16.44 1.3 1.32A4.37 4.37 0 0 0 0 4.5v26c0 1.23.43 2.29 1.3 3.17a4.15 4.15 0 0 0 3.09 1.32h25.45c1.2 0 2.24-.44 3.1-1.32a4.37 4.37 0 0 0 1.3-3.17v-26c0-1.23-.44-2.29-1.3-3.17zm-20.65 11.3a6.65 6.65 0 0 1 4.85-2c1.9 0 3.52.66 4.87 2a6.53 6.53 0 0 1 2.01 4.81c0 1.89-.67 3.5-2.01 4.82a6.67 6.67 0 0 1-4.87 2c-1.89 0-3.5-.67-4.85-2a6.53 6.53 0 0 1-2.02-4.82c0-1.88.68-3.49 2.02-4.82zm18.06 16.96c0 .4-.13.72-.4.99-.27.26-.58.4-.96.4H5.17a1.3 1.3 0 0 1-.97-.4c-.26-.27-.39-.6-.39-1V14.82h3.14c-.3.96-.44 1.95-.44 2.99 0 2.91 1.04 5.4 3.12 7.46a10.3 10.3 0 0 0 7.5 3.09c1.94 0 3.72-.47 5.36-1.42a10.51 10.51 0 0 0 4.86-12.12h3v14.77zm0-20.35c0 .44-.14.81-.44 1.11-.3.3-.66.46-1.1.46h-3.87c-.43 0-.8-.15-1.1-.46a1.5 1.5 0 0 1-.44-1.11V5.47c0-.43.15-.8.45-1.1.3-.32.66-.47 1.09-.47h3.88c.43 0 .8.15 1.09.46.3.32.44.68.44 1.1v3.77z"/>
</svg>
