<svg xmlns="http://www.w3.org/2000/svg" width="23" height="23">
  <path d="M18.5 23c-1 0-2.1-.2-3.4-.7-2.8-1-5.8-3.1-8.5-5.9A25.4 25.4 0 0 1 .7 8c-1-2.5-1-4.6 0-5.6l.4-.4C2 .9 3-.1 4.3 0c.9 0 1.7.6 2.6 1.7C9.6 5 8.4 6.1 7 7.5l-.2.2C6.5 8 6 9 10 13c1.3 1.3 2.3 2.3 3.2 2.8.6.4 1.6 1 2 .5l.2-.2c1.4-1.4 2.5-2.6 5.8 0 1.1 1 1.7 1.8 1.7 2.7 0 1.3-1 2.3-1.9 3.2l-.4.4c-.5.5-1.3.7-2.2.7zM4.2.8c-1 0-1.8.9-2.5 1.6l-.4.5c-.7.7-.7 2.6.1 4.7a27.5 27.5 0 0 0 14 14c2.2.8 4 .8 4.7.1l.5-.4c.8-.7 1.7-1.6 1.6-2.6 0-.6-.5-1.3-1.4-2-2.7-2.2-3.5-1.5-4.7-.2l-.3.3c-.6.6-1.6.4-2.9-.4-1-.6-2-1.6-3.4-3-3.3-3.2-4.3-5.2-3.3-6.2l.3-.3c1.3-1.2 2-2-.2-4.7-.7-1-1.4-1.4-2-1.4h-.1z"/>
</svg>
