<svg xmlns="http://www.w3.org/2000/svg" width="15" height="18.2" viewBox="0 0 15 18.2"><title>boy</title><path d="M11.086,8.53V5.34a1.23,1.23,0,0,0-1.23-1.22h-.18a1.3,1.3,0,0,0-.92.38,1.72,1.72,0,0,1-1.22.5,1.74,1.74,0,0,1-1.22-.51,1.3,1.3,0,0,0-.92-.38h-.18a1.23,1.23,0,0,0-1.23,1.22v3.2a3.55,3.55,0,0,0,7.1,0ZM9.476,6.46a.44.44,0,1,1-.44.44A.44.44,0,0,1,9.476,6.46Zm-3.9,0a.44.44,0,1,1-.44.44A.44.44,0,0,1,5.576,6.46Zm-.44,2.06h.59a1.775,1.775,0,0,0,3.55,0h.59a2.37,2.37,0,0,1-4.73,0Z" transform="translate(-0.036 0)" style="fill:none"/><path d="M5.4,3.52a1.9,1.9,0,0,1,1.34.56,1.17,1.17,0,0,0,1.6,0,1.9,1.9,0,0,1,1.34-.56h.18a1.82,1.82,0,0,1,1.23.48V3.81a2.65,2.65,0,0,0-2.66-2.64,1.18,1.18,0,0,1-.89-.4,1.18,1.18,0,0,1-.89.4h-.01a2.65,2.65,0,0,0-2.65,2.65V4a1.82,1.82,0,0,1,1.23-.48Z" transform="translate(-0.036 0)" style="fill:none"/><path d="M12.239,8.194A.87.87,0,0,0,11.676,7.1V8.52l-.01.24A.87.87,0,0,0,12.239,8.194Z" transform="translate(-0.036 0)" style="fill:none"/><path d="M6.056,12.59a1.44,1.44,0,0,0,1.48.92,1.44,1.44,0,0,0,1.48-.92v-.24a4.1,4.1,0,0,1-2.96,0Z" transform="translate(-0.036 0)" style="fill:none"/><path d="M3.4,7.1a.88.88,0,0,0-.59.82v.01a.88.88,0,0,0,.6.83L3.4,8.52Z" transform="translate(-0.036 0)" style="fill:none"/><polygon points="3.88 16.15 3.81 16.74 11.2 16.74 11.12 16.15 3.88 16.15" style="fill:none"/><polygon points="3.73 17.32 3.69 17.62 11.31 17.62 11.27 17.32 3.73 17.32" style="fill:none"/><path d="M13.5,15.3a3.07,3.07,0,0,0-2.45-2.1l-1.54-.24a2.07,2.07,0,0,1-1.97,1.14,2.07,2.07,0,0,1-1.97-1.15l-1.54.23a3.07,3.07,0,0,0-2.45,2.1l-.74,2.34h2.31l.26-2.09.29.03h7.68l.3-.03.26,2.1h2.29Z" transform="translate(-0.036 0)" style="fill:none"/><path d="M14.066,15.1a3.66,3.66,0,0,0-2.93-2.5l-1.53-.23v-.3a4.12,4.12,0,0,0,1.98-2.69,1.46,1.46,0,0,0,.09-2.89V3.82A3.25,3.25,0,0,0,8.426.59.59.59,0,0,1,7.836,0h-.6a.59.59,0,0,1-.59.59h-.01A3.25,3.25,0,0,0,3.4,3.82V6.49a1.46,1.46,0,0,0,.1,2.89,4.12,4.12,0,0,0,1.97,2.69v.3l-1.53.24a3.66,3.66,0,0,0-2.93,2.5L.036,18.2h15Zm-2.39-6.58V7.1a.87.87,0,0,1-.01,1.66Zm-8.87-.59V7.92A.88.88,0,0,1,3.4,7.1V8.52l.01.24A.88.88,0,0,1,2.806,7.93Zm1.18-4.11a2.65,2.65,0,0,1,2.65-2.65h.01a1.18,1.18,0,0,0,.89-.4,1.18,1.18,0,0,0,.89.4,2.65,2.65,0,0,1,2.66,2.64V4a1.82,1.82,0,0,0-1.23-.48h-.18a1.9,1.9,0,0,0-1.34.56,1.17,1.17,0,0,1-1.6,0A1.9,1.9,0,0,0,5.4,3.52h-.18A1.82,1.82,0,0,0,3.986,4Zm0,4.71V5.33a1.23,1.23,0,0,1,1.23-1.22H5.4a1.3,1.3,0,0,1,.92.38A1.74,1.74,0,0,0,7.536,5a1.72,1.72,0,0,0,1.22-.5,1.3,1.3,0,0,1,.92-.38h.18a1.23,1.23,0,0,1,1.23,1.22V8.53a3.55,3.55,0,0,1-7.1,0Zm5.03,3.82v.24a1.44,1.44,0,0,1-1.48.92,1.44,1.44,0,0,1-1.48-.92v-.24A4.1,4.1,0,0,0,9.016,12.35Zm-5.29,5.27.04-.3h7.54l.04.3Zm.12-.88.07-.59h7.24l.08.59Zm7.83-1.21-.3.03H3.7l-.29-.03-.26,2.09H.836l.74-2.34a3.07,3.07,0,0,1,2.45-2.1l1.54-.23a2.07,2.07,0,0,0,1.97,1.15,2.07,2.07,0,0,0,1.97-1.14l1.54.24a3.07,3.07,0,0,1,2.45,2.1l.73,2.33h-2.29Z" transform="translate(-0.036 0)" style="fill:#e74f3a"/><circle cx="5.54" cy="6.9" r="0.44" style="fill:#e74f3a"/><circle cx="9.44" cy="6.9" r="0.44" style="fill:#e74f3a"/><path d="M9.866,8.52h-.59a1.775,1.775,0,0,1-3.55,0h-.59a2.37,2.37,0,0,0,4.73,0Z" transform="translate(-0.036 0)" style="fill:#e74f3a"/></svg>