<svg xmlns="http://www.w3.org/2000/svg" xmlns:xlink="http://www.w3.org/1999/xlink" width="79" height="73">
  <use fill="#015794" transform="rotate(146.5 33.8 29.8)" xlink:href="#path0_fill"/>
  <defs>
    <path id="path0_fill" d="M28 28.6a17.7 17.7 0 0 1-23-1A15.8 15.8 0 0 1 5 4.8a17.7 17.7 0 0 1 24 0A15.8 15.8 0 0 1 33.3 21l-.2.4c-.4 1.1-.9 2.2-1.5 3.2l1.6-.4c2-.1 3.5 1 4.1 4.4 0 1.3 0 2.5 2.2 2.6.8 0 1.7-.1 2.6-.4l-.4-.7c-.3-.7-.4-1.4-.3-2 .1-.8.5-1.4 1-1.8.8-.5 1.8-.5 3 .1 1.6 1 1.8 2 1.1 3.2-.2.5-.6.9-1.1 1.2 2 0 4.4.2 6.5.8 2.9.9 5.2 4.5 5.2 4.5l8.3 5.5-1.2 1.7-8.3-5.5s-2.6-4.2-4.4-4.7c-2-.6-4.3-.7-6.2-.7-.7 0-1.4-.2-1.9-.4-1.2.5-2.6.8-4 .7-2 0-3.8-1.2-3.7-4-.4-2.2-1.3-3-2.3-2.9-2.4.2-4.5 2.5-5.5 3zM43.5 30c.8-.4 2.4-1.5 1-2.3-.6-.3-1-.3-1.2-.2-.7.5-.3 2 .2 2.5zm-12-18h-.3c-3.4-.1-6.6.6-9.4 2l1.7 2a14.3 14.3 0 0 1 8.7-1.3 18 18 0 0 0-.6-2.8zm-11.1 2.7l-2.2 1.5 1.6 2 2.2-1.5-1.6-2zm-3.1.1l2.2-1.5-.9-1.7-2.2 1.5.9 1.7zm3.6-2.2a21 21 0 0 1 10-2.2l-1-2c-3.5.2-6.9 1-9.8 2.4l.8 1.8zm-4 4.6c-.5.5-1 1-1.3 1.5l1.7 2c.4-.6.8-1 1.3-1.4l-1.7-2zM14.6 20l-1.4 2a28 28 0 0 0 1.9 2l1.2-2.1-1.7-2zm-2.2 3.7a19 19 0 0 0-1.4 6c.9.4 1.8.7 2.7.8 0-1.7.2-3.3.7-4.8l-2-2zm-3 5.2c.3-2.3.9-4.5 1.9-6.6a7 7 0 0 1-1.3-1.7c-1.1 2-2 4.4-2.3 6.8l-.2.3c.6.5 1.3.9 2 1.2zm2.7-8.2l1.5-2-1.1-1.8-1.6 2.1 1.2 1.7zm2.6-3.4l1.4-1.4-1-1.7-1.4 1.3 1 1.8zm-.2-4.7l-.8-2.4-1.6 1.3c.2.9.5 1.7.9 2.5l1.5-1.4zm1.4-1c.7-.6 1.4-1 2.2-1.4l-.5-2.4-2.4 1.3.7 2.5zm3.7-2.2C22.4 8 25.6 7.2 29 7a10 10 0 0 0-2.1-2h-.1c-2.7.4-5.2 1-7.6 2 0 .9.3 1.6.5 2.4zM6.1 26.5A23 23 0 0 1 9 19a24 24 0 0 1-1.3-2.5c-1.9 2.9-2.4 5-3.3 8.1.5.8 1 1.4 1.7 2zm4-9.1c.4-.8 1-1.4 1.6-2.1l-1-2.5c-.7.6-1.3 1.3-1.8 2l1.1 2.6zm1.5-7.7l1.8-1.3c-.3-2-.3-4.2.1-6.4-.7.1-1.4.3-2 .6-.4 2.4-.3 4.8 0 7.1zm3.3-2.3c.8-.5 1.6-1 2.5-1.3 0-1.5.2-3 .8-4.5h-3V2c-.4 1.8-.5 3.6-.3 5.4zm4.2-2C21 4.6 22.8 4 25 3.7c-1.5-.9-3.2-1.5-5-1.8a11 11 0 0 0-.8 3.5zm-16 17.2c1-3 2.2-5.7 4-8a23.5 23.5 0 0 1-1.6-8.3 14 14 0 0 0-2.4 16.2zM8.4 13c.6-.8 1.2-1.4 1.9-2a23 23 0 0 1-.6-7.6L7.2 4.9v.3c0 2.7.4 5.3 1 7.8zm24 3.2a13.8 13.8 0 0 0-7.4 1l1.2.8a14 14 0 0 0 5.7 2c.3-1.2.5-2.5.5-3.8zm-9 1.7L21 19.3c2.4 2.2 5.4 3.8 9 4.6l1.2-2.4a15 15 0 0 1-8-3.6zM20 20.4c-.5.5-1 .9-1.3 1.4a23 23 0 0 0 8.7 5h.2l.3-.3 1.2-1.2a21 21 0 0 1-9.1-4.9zm-2.3 2.7l-1 1.7-.2.4a26 26 0 0 0 7.3 4.2L26 28a25 25 0 0 1-8.5-4.9zm-1.8 3.8a12 12 0 0 0-.3 3.9c2 .2 4 0 6-.6-2.1-1-4-2-5.7-3.3z"/>
  </defs>
</svg>
