<svg xmlns="http://www.w3.org/2000/svg" width="60" height="74.37" fill="#E74F3A">
  <path d="M3.9 61.72L0 74.37h60l-3.9-12.65a14.83 14.83 0 0 0-5.15-7.39 7.26 7.26 0 0 1-1.18-1.71 7.48 7.48 0 0 0 1.52.16 6.28 6.28 0 0 0 5.8-3.06l.42-.87-2.22-1.8a10.8 10.8 0 0 1-4-8.43V17.99a9.56 9.56 0 0 0-8.47-9.54A10.92 10.92 0 0 0 32.28 0H30A21.47 21.47 0 0 0 8.7 21.6v17.02a10.8 10.8 0 0 1-4 8.43l-2.21 1.8.42.86a6.28 6.28 0 0 0 5.8 3.07 7.46 7.46 0 0 0 1.52-.16 7.28 7.28 0 0 1-1.18 1.71 14.83 14.83 0 0 0-5.15 7.39zm49.91-12.8l.54.44a4.51 4.51 0 0 1-3.06 1.02 4.08 4.08 0 0 1-2.7-.85l-.05.04a28.57 28.57 0 0 1-.82-3.03l-2.32.47a30.88 30.88 0 0 0 1.56 5.15 14.29 14.29 0 0 0-2.57-.66l-6.1-.95V49.3a16.82 16.82 0 0 0 7.9-11.01 5.81 5.81 0 0 0 2.74-1.15v1.47a13.2 13.2 0 0 0 4.88 10.3zM30 49.18a14.31 14.31 0 0 1-14.2-14.4v-5.42a4.14 4.14 0 0 1 4.11-4.17h4.1a36.76 36.76 0 0 0 18.1-4.78 2.4 2.4 0 0 1 2.09 2.38v12A14.31 14.31 0 0 1 30 49.2zm5.92 1.27v.95c-.2.63-1.45 3.77-5.92 3.77s-5.7-3.13-5.92-3.77v-.95a16.1 16.1 0 0 0 11.84 0zm10.6-14.67c.01-.33.04-.66.04-1v-5.77a3.6 3.6 0 0 1-.05 6.77zM11.06 21.6A19.08 19.08 0 0 1 30 2.4h2.28a8.54 8.54 0 0 1 8.38 7.37l.14 1.03h1.03a7.16 7.16 0 0 1 7.1 7.2v9.62a5.82 5.82 0 0 0-2.37-1.1v-3.73a4.77 4.77 0 0 0-4.73-4.8h-.31l-.28.16a34.41 34.41 0 0 1-17.23 4.64h-4.1a6.47 6.47 0 0 0-5.79 3.65 5.81 5.81 0 0 0-3.05 1.18zm2.4 7.4l-.02.35v5.43c0 .34.03.67.05 1a3.6 3.6 0 0 1-.03-6.78zM8.7 50.38a4.52 4.52 0 0 1-3.06-1.02l.54-.44a13.2 13.2 0 0 0 4.88-10.3v-1.46a5.8 5.8 0 0 0 2.74 1.14 16.82 16.82 0 0 0 7.9 11v1.25l-6.1.95a14.3 14.3 0 0 0-2.57.66 30.94 30.94 0 0 0 1.56-5.14l-2.32-.47a28.66 28.66 0 0 1-.8 3l-.05-.03a4.05 4.05 0 0 1-2.72.86zm7.26 3.5l6.16-.97a8.13 8.13 0 0 0 6.69 4.58v12.08h2.36V57.5a8.13 8.13 0 0 0 6.69-4.58l6.16.97a12.36 12.36 0 0 1 9.81 8.55l2.94 9.54H47.6l-1.06-8.54-2.34.3 1.01 8.24H14.78l1.02-8.24-2.35-.3-1.06 8.54H3.22l2.94-9.54a12.36 12.36 0 0 1 9.81-8.55z"/>
  <ellipse cx="22.17" cy="28.2" rx="1.77" ry="1.8"/>
  <ellipse cx="37.77" cy="28.2" rx="1.77" ry="1.8"/>
  <path d="M29.86 42a7.16 7.16 0 0 1-7.1-7.2H20.4a9.46 9.46 0 1 0 18.93 0h-2.37a7.16 7.16 0 0 1-7.1 7.2zm3.74 16.76h2.37v2.4H33.6zm0 4.8h2.37v2.4H33.6z"/>
</svg>
