<svg xmlns="http://www.w3.org/2000/svg" width="11.961" height="14.825" viewBox="0 0 11.961 14.825"><title>woman</title><path d="M4.84,10.057v.189A1.152,1.152,0,0,0,6.02,11a1.15,1.15,0,0,0,1.18-.752v-.189A3.209,3.209,0,0,1,4.84,10.057Z" transform="translate(-0.039)" style="fill:none"/><path d="M2.854,5.271a1.29,1.29,0,0,1,1.154-.728h.817A6.859,6.859,0,0,0,8.26,3.618l.056-.032h.062a.951.951,0,0,1,.943.957v.744a1.16,1.16,0,0,1,.472.219V3.588A1.427,1.427,0,0,0,8.378,2.153H8.173l-.028-.205A1.7,1.7,0,0,0,6.474.478H6.02A3.8,3.8,0,0,0,2.244,4.306l0,1.2A1.158,1.158,0,0,1,2.854,5.271Z" transform="translate(-0.039)" style="fill:none"/><path d="M9.793,7.4a1.158,1.158,0,0,1-.546.229A3.353,3.353,0,0,1,7.672,9.828v.249l1.216.189A2.849,2.849,0,0,1,9.4,10.4,6.155,6.155,0,0,1,9.09,9.371l.462-.094a5.7,5.7,0,0,0,.163.6l.01-.008a.813.813,0,0,0,.538.169.9.9,0,0,0,.61-.2l-.108-.088v0A2.631,2.631,0,0,1,9.793,7.7Z" transform="translate(-0.039)" style="fill:none"/><path d="M8.85,6.935V4.543a.478.478,0,0,0-.417-.474,7.328,7.328,0,0,1-3.608.953H4.008a.825.825,0,0,0-.819.831v1.08A2.853,2.853,0,0,0,6.02,9.8v0A2.853,2.853,0,0,0,8.85,6.935ZM4.459,5.263a.359.359,0,1,1-.353.359A.356.356,0,0,1,4.459,5.263ZM5.993,8.824A1.887,1.887,0,0,1,4.106,6.937h.47a1.415,1.415,0,1,0,2.831,0H7.88A1.887,1.887,0,0,1,5.993,8.824ZM7.569,5.98a.359.359,0,1,1,.353-.359A.356.356,0,0,1,7.569,5.98Z" transform="translate(-0.039)" style="fill:none"/><path d="M2.723,5.781a.718.718,0,0,0,.006,1.352c0-.066-.01-.132-.01-.2V5.851Z" transform="translate(-0.039)" style="fill:none"/><path d="M9.321,5.783v1.15c0,.067-.006.133-.008.2a.717.717,0,0,0,.008-1.349Z" transform="translate(-0.039)" style="fill:none"/><path d="M2.326,9.877a5.714,5.714,0,0,0,.159-.6l.462.094A6.169,6.169,0,0,1,2.637,10.4a2.852,2.852,0,0,1,.512-.132l1.216-.189V9.828A3.353,3.353,0,0,1,2.79,7.635a1.156,1.156,0,0,1-.546-.227V7.7a2.631,2.631,0,0,1-.973,2.053l-.108.088a.9.9,0,0,0,.61.2.807.807,0,0,0,.542-.171Z" transform="translate(-0.039)" style="fill:none"/><path d="M.681,14.349H2.509l.211-1.7.468.06-.2,1.643H9.052l-.2-1.643.466-.06.211,1.7h1.828l-.586-1.9a2.464,2.464,0,0,0-1.956-1.7l-1.228-.193a1.621,1.621,0,0,1-1.334.913v2.406h-.47V11.46a1.621,1.621,0,0,1-1.334-.913l-1.228.193,0,0a2.464,2.464,0,0,0-1.956,1.7Zm6.056-2.635H7.21v.478H6.737Zm0,.957H7.21v.478H6.737Z" transform="translate(-0.039)" style="fill:none"/><path d="M.817,12.3.039,14.825H12L11.223,12.3A2.956,2.956,0,0,0,10.2,10.83a1.447,1.447,0,0,1-.235-.341,1.492,1.492,0,0,0,.3.032,1.252,1.252,0,0,0,1.156-.61l.084-.173-.443-.359a2.153,2.153,0,0,1-.8-1.68V3.586a1.906,1.906,0,0,0-1.688-1.9A2.177,2.177,0,0,0,6.474,0H6.02A4.28,4.28,0,0,0,1.774,4.306V7.7a2.153,2.153,0,0,1-.8,1.68l-.441.359.084.171a1.252,1.252,0,0,0,1.156.612,1.487,1.487,0,0,0,.3-.032,1.451,1.451,0,0,1-.235.341A2.956,2.956,0,0,0,.817,12.3ZM10.766,9.75v0l.108.088a.9.9,0,0,1-.61.2.813.813,0,0,1-.538-.169l-.01.008a5.7,5.7,0,0,1-.163-.6l-.462.094A6.155,6.155,0,0,0,9.4,10.4a2.849,2.849,0,0,0-.512-.132l-1.216-.189V9.828A3.353,3.353,0,0,0,9.247,7.633,1.158,1.158,0,0,0,9.793,7.4V7.7A2.631,2.631,0,0,0,10.766,9.75ZM6.02,9.808v0A2.853,2.853,0,0,1,3.189,6.933V5.853a.825.825,0,0,1,.819-.831h.817a7.328,7.328,0,0,0,3.608-.953.478.478,0,0,1,.417.474V6.935A2.853,2.853,0,0,1,6.02,9.808Zm1.18.249v.189A1.15,1.15,0,0,1,6.02,11a1.152,1.152,0,0,1-1.18-.752v-.189A3.209,3.209,0,0,0,7.2,10.057ZM9.313,7.132c0-.065.008-.131.008-.2V5.783a.717.717,0,0,1-.008,1.349ZM6.02.478h.455a1.7,1.7,0,0,1,1.67,1.469l.028.205h.205A1.427,1.427,0,0,1,9.793,3.588V5.506a1.16,1.16,0,0,0-.472-.219V4.543a.951.951,0,0,0-.943-.957H8.316l-.056.032a6.859,6.859,0,0,1-3.435.925H4.008a1.29,1.29,0,0,0-1.154.728,1.158,1.158,0,0,0-.608.235l0-1.2A3.8,3.8,0,0,1,6.02.478ZM2.729,7.133a.718.718,0,0,1-.006-1.352l0,.07V6.933C2.719,7,2.725,7.067,2.729,7.133Zm-.955,2.91a.9.9,0,0,1-.61-.2l.108-.088A2.631,2.631,0,0,0,2.244,7.7V7.408a1.156,1.156,0,0,0,.546.227A3.353,3.353,0,0,0,4.365,9.828v.249l-1.216.189a2.852,2.852,0,0,0-.512.132,6.169,6.169,0,0,0,.311-1.025l-.462-.094a5.714,5.714,0,0,1-.159.6l-.01-.006A.807.807,0,0,1,1.774,10.043Zm1.449.7,0,0,1.228-.193a1.621,1.621,0,0,0,1.334.913v2.408h.47V11.462a1.621,1.621,0,0,0,1.334-.913l1.228.193a2.464,2.464,0,0,1,1.956,1.7l.586,1.9H9.528l-.211-1.7-.466.06.2,1.643H2.986l.2-1.643-.468-.06-.211,1.7H.681l.586-1.9A2.464,2.464,0,0,1,3.223,10.743Z" transform="translate(-0.039)" style="fill:#e74f3a"/><ellipse cx="4.419" cy="5.621" rx="0.353" ry="0.359" style="fill:#e74f3a"/><ellipse cx="7.529" cy="5.621" rx="0.353" ry="0.359" style="fill:#e74f3a"/><path d="M5.992,8.372A1.427,1.427,0,0,1,4.576,6.937h-.47a1.887,1.887,0,1,0,3.774,0H7.407A1.427,1.427,0,0,1,5.992,8.372Z" transform="translate(-0.039)" style="fill:#e74f3a"/><rect x="6.698" y="12.67" width="0.472" height="0.478" style="fill:#e74f3a"/><rect x="6.698" y="11.713" width="0.472" height="0.478" style="fill:#e74f3a"/></svg>