<svg xmlns="http://www.w3.org/2000/svg" width="15" height="18.2" fill="#E74F3A">
  <path d="M14.03 15.1a3.66 3.66 0 0 0-2.93-2.5l-1.53-.23v-.3a4.12 4.12 0 0 0 1.98-2.69 1.46 1.46 0 0 0 .09-2.89V3.82A3.25 3.25 0 0 0 8.39.59.59.59 0 0 1 7.8 0h-.6a.59.59 0 0 1-.6.59 3.25 3.25 0 0 0-3.24 3.23v2.67a1.46 1.46 0 0 0 .1 2.89 4.12 4.12 0 0 0 1.97 2.69v.3l-1.53.24a3.66 3.66 0 0 0-2.93 2.5L0 18.2h15zm-2.39-6.58V7.1a.87.87 0 0 1-.01 1.66l.01-.24zm-8.87-.6a.88.88 0 0 1 .59-.82v1.42l.01.24a.88.88 0 0 1-.6-.83zm1.18-4.1a2.65 2.65 0 0 1 2.66-2.65 1.18 1.18 0 0 0 .89-.4 1.18 1.18 0 0 0 .89.4 2.65 2.65 0 0 1 2.66 2.65V4a1.82 1.82 0 0 0-1.23-.48h-.18a1.9 1.9 0 0 0-1.34.56 1.17 1.17 0 0 1-1.6 0 1.9 1.9 0 0 0-1.34-.56h-.18A1.82 1.82 0 0 0 3.95 4zm0 4.7V5.33a1.23 1.23 0 0 1 1.23-1.22h.18a1.3 1.3 0 0 1 .92.38A1.74 1.74 0 0 0 7.5 5a1.72 1.72 0 0 0 1.22-.5 1.3 1.3 0 0 1 .92-.38h.18a1.23 1.23 0 0 1 1.23 1.22v3.19a3.55 3.55 0 0 1-7.1 0zm5.03 3.83v.24a1.44 1.44 0 0 1-1.48.92 1.44 1.44 0 0 1-1.48-.92v-.24a4.1 4.1 0 0 0 2.96 0zm-5.29 5.27l.04-.3h7.54l.04.3zm.12-.88l.07-.59h7.24l.08.59zm7.83-1.21l-.3.03H3.66l-.29-.03-.26 2.09H.8l.74-2.34a3.07 3.07 0 0 1 2.45-2.1l1.54-.23A2.07 2.07 0 0 0 7.5 14.1a2.07 2.07 0 0 0 1.97-1.14l1.54.24a3.07 3.07 0 0 1 2.45 2.1l.73 2.33H11.9z"/>
  <circle cx="5.54" cy="6.9" r=".44"/>
  <circle cx="9.44" cy="6.9" r=".44"/>
  <path d="M9.83 8.52h-.59a1.77 1.77 0 0 1-3.55 0H5.1a2.37 2.37 0 0 0 4.73 0z"/>
</svg>
