<svg xmlns="http://www.w3.org/2000/svg" width="11.34" height="18.2" viewBox="0 0 12 18.2" fill="#E74F3A">
  <path d="M11.34 6.55a1.25 1.25 0 0 0-.72-1.14l.52-.75a1.02 1.02 0 0 0 .1-1 .96.96 0 0 0-.78-.59.3.3 0 0 0-.32.27.3.3 0 0 0 .26.34.38.38 0 0 1 .3.23.4.4 0 0 1-.03.4l-.8 1.12a.37.37 0 0 1-.34.16.37.37 0 0 1-.3-.23L8.63 4a1.17 1.17 0 0 0 .34-.48l.42.05h.03a.3.3 0 0 0 .3-.27.3.3 0 0 0-.26-.33l-.43-.05a1.13 1.13 0 0 0-1.1-.98 1.08 1.08 0 0 0-.17.01L7.19.6A.96.96 0 0 0 6.4 0a.94.94 0 0 0-.88.41l-.8 1.13a1.02 1.02 0 0 0-.1 1 .96.96 0 0 0 .79.6l1.42.15a1.18 1.18 0 0 0 .12.36A5.01 5.01 0 0 1 1.87 5a4.07 4.07 0 0 1 2.26-2.63.3.3 0 0 0 .15-.4.29.29 0 0 0-.38-.16 4.7 4.7 0 0 0-2.7 3.5 1.25 1.25 0 0 0-.27 2.46 3.8 3.8 0 0 0 1.47 3.31l.4.3a3.07 3.07 0 0 0-1.87 2.85v.83a.3.3 0 1 0 .58 0v-.83a2.47 2.47 0 0 1 1.41-2.25 2.81 2.81 0 0 0 2.75 2.48 2.77 2.77 0 0 0 2.55-1.76.3.3 0 0 0-.15-.4.29.29 0 0 0-.39.16 2.19 2.19 0 0 1-2.01 1.39A2.22 2.22 0 0 1 3.5 11.9l.56.43a2.64 2.64 0 0 0 3.2 0l.68-.51a2.44 2.44 0 0 1 1.88 2.4v3.37H8.69v-2.78a.3.3 0 1 0-.59 0v2.78H3.23v-2.78a.3.3 0 1 0-.58 0v2.78H1.5v-1.41a.3.3 0 1 0-.59 0v1.71a.3.3 0 0 0 .3.3h8.9a.3.3 0 0 0 .29-.3v-3.67a3.07 3.07 0 0 0-1.87-2.85l.4-.3a3.8 3.8 0 0 0 1.47-3.31 1.24 1.24 0 0 0 .93-1.21zm-10.35.6a.65.65 0 0 1 .13-1.23zm6.94-4.6a.55.55 0 1 1-.53.55.54.54 0 0 1 .53-.55zm-1.04.13l-1.42-.16a.38.38 0 0 1-.3-.23.4.4 0 0 1 .03-.39L6 .77a.37.37 0 0 1 .34-.16.37.37 0 0 1 .31.23l.58 1.36a1.17 1.17 0 0 0-.34.48zm1.7 7.91l-1.66 1.26a2.07 2.07 0 0 1-2.52 0l-1.67-1.26a3.2 3.2 0 0 1-1.22-2.88l.21-2.01.02-.1a6.9 6.9 0 0 0 1.63.2 5.32 5.32 0 0 0 3.27-1.08 3.83 3.83 0 0 0 1.44 1.16.28.28 0 0 0 .12.03.3.3 0 0 0 .27-.19.3.3 0 0 0-.15-.4 3.26 3.26 0 0 1-1.23-.99l.25-.24a1.08 1.08 0 0 0 .75.16l.58 1.36a.96.96 0 0 0 .78.59.97.97 0 0 0 .11 0h.08l.16 1.52a3.2 3.2 0 0 1-1.22 2.87zm1.76-3.43l-.13-1.22.02-.02a.65.65 0 0 1 .11 1.24z"/>
  <path d="M7.36 7a1.2 1.2 0 0 0-.87.38.31.31 0 0 0 0 .43.28.28 0 0 0 .41 0 .64.64 0 0 1 .93 0 .28.28 0 0 0 .41 0 .31.31 0 0 0 0-.43A1.2 1.2 0 0 0 7.36 7zm-2.52.8a.31.31 0 0 0 0-.42 1.2 1.2 0 0 0-1.75 0 .31.31 0 0 0 0 .43.28.28 0 0 0 .41 0 .64.64 0 0 1 .93 0 .28.28 0 0 0 .4 0zM6.2 9.87a.76.76 0 0 1-1.1 0 .28.28 0 0 0-.41 0 .31.31 0 0 0 0 .43 1.33 1.33 0 0 0 1.93 0 .31.31 0 0 0 0-.43.28.28 0 0 0-.42 0zm-.8-1.03h.49a.3.3 0 0 0 0-.61h-.5a.3.3 0 0 0 0 .6z"/>
</svg>
