<svg xmlns="http://www.w3.org/2000/svg" width="25.43" height="25.99" viewBox="0 0 25.43 25.99"><title>instagram</title><path d="M24.47,1a3.1,3.1,0,0,0-2.3-1H3.27A3.11,3.11,0,0,0,1,1,3.25,3.25,0,0,0,0,3.34V22.65A3.23,3.23,0,0,0,1,25a3.08,3.08,0,0,0,2.3,1h18.9a3.11,3.11,0,0,0,2.3-1,3.25,3.25,0,0,0,1-2.35V3.34a3.26,3.26,0,0,0-1-2.35h0ZM9.13,9.37a4.94,4.94,0,0,1,3.6-1.49,4.94,4.94,0,0,1,3.62,1.49,4.85,4.85,0,0,1,1.49,3.57,4.84,4.84,0,0,1-1.49,3.58A5,5,0,0,1,12.73,18a5,5,0,0,1-3.6-1.49,4.85,4.85,0,0,1-1.5-3.58,4.87,4.87,0,0,1,1.5-3.58h0ZM22.54,22a1,1,0,0,1-1,1H3.84a1,1,0,0,1-.72-0.3A1,1,0,0,1,2.83,22V11H5.16a7.37,7.37,0,0,0-.33,2.22,7.52,7.52,0,0,0,2.32,5.54,7.65,7.65,0,0,0,5.57,2.3A7.86,7.86,0,0,0,20.32,11h2.23V22h0Zm0-15.12A1.14,1.14,0,0,1,21.4,8H18.53a1.09,1.09,0,0,1-.82-0.34,1.11,1.11,0,0,1-.33-0.82V4.06a1.12,1.12,0,0,1,.33-0.82,1.06,1.06,0,0,1,.81-0.35h2.88a1.07,1.07,0,0,1,.81.34,1.14,1.14,0,0,1,.33.82v2.8Z" transform="translate(0 0)"/></svg>